<svg id="Warstwa_1" data-name="Warstwa 1" xmlns="http://www.w3.org/2000/svg" viewBox="0 0 112 74"><defs><style>.cls-1{fill:#fff;}.cls-2{fill:#c8102e;}.cls-3{fill:#012169;}</style></defs><rect class="cls-1" width="112" height="74"/><path class="cls-2" d="M0,0V5.75L28.63,24.67h8.7ZM49.28,0V29.6H0V44.39H49.28V74H62.72V44.39H112V29.6H62.72V0Zm54,0L67.2,23.85v.82h7.47L112,0ZM37.24,49.33,0,74H8.71L44.8,50.15v-.82Zm37.43,0L112,74V68.25L83.38,49.33Z"/><path class="cls-3" d="M13.11,0,44.8,21V0ZM67.2,0V21L98.94,0ZM0,8.63v16H24.27Zm112,0-24.27,16H112ZM0,49.33v16l24.27-16Zm87.74,0L112,65.55V49.33ZM67.2,53V74H98.94ZM44.8,53,13.06,74H44.8Z"/></svg>